<svg width="71" height="80" viewBox="0 0 71 80" fill="none" xmlns="http://www.w3.org/2000/svg">
<rect width="71" height="80" fill="#F3F5FC"/>
<path d="M5 2.79688V14H3.39844V4.39844H1.47656V2.79688H5ZM16.8516 12.3984C16.8516 12.6172 16.8099 12.8255 16.7266 13.0234C16.6432 13.2161 16.5286 13.3854 16.3828 13.5312C16.237 13.6771 16.0651 13.7917 15.8672 13.875C15.6745 13.9583 15.4688 14 15.25 14H9.64844C9.42969 14 9.22135 13.9583 9.02344 13.875C8.83073 13.7917 8.66146 13.6771 8.51562 13.5312C8.36979 13.3854 8.25521 13.2161 8.17188 13.0234C8.08854 12.8255 8.04688 12.6172 8.04688 12.3984V4.39844C8.04688 4.17969 8.08854 3.97396 8.17188 3.78125C8.25521 3.58333 8.36979 3.41406 8.51562 3.27344C8.66146 3.1276 8.83073 3.01302 9.02344 2.92969C9.22135 2.84115 9.42969 2.79688 9.64844 2.79688H15.25C15.4688 2.79688 15.6745 2.84115 15.8672 2.92969C16.0651 3.01302 16.237 3.1276 16.3828 3.27344C16.5286 3.41406 16.6432 3.58333 16.7266 3.78125C16.8099 3.97396 16.8516 4.17969 16.8516 4.39844V12.3984ZM9.64844 4.39844V12.3984H15.25V4.39844H9.64844ZM28.5391 12.3984C28.5391 12.6172 28.4974 12.8255 28.4141 13.0234C28.3307 13.2161 28.2161 13.3854 28.0703 13.5312C27.9245 13.6771 27.7526 13.7917 27.5547 13.875C27.362 13.9583 27.1562 14 26.9375 14H21.3359C21.1172 14 20.9089 13.9583 20.7109 13.875C20.5182 13.7917 20.349 13.6771 20.2031 13.5312C20.0573 13.3854 19.9427 13.2161 19.8594 13.0234C19.776 12.8255 19.7344 12.6172 19.7344 12.3984V4.39844C19.7344 4.17969 19.776 3.97396 19.8594 3.78125C19.9427 3.58333 20.0573 3.41406 20.2031 3.27344C20.349 3.1276 20.5182 3.01302 20.7109 2.92969C20.9089 2.84115 21.1172 2.79688 21.3359 2.79688H26.9375C27.1562 2.79688 27.362 2.84115 27.5547 2.92969C27.7526 3.01302 27.9245 3.1276 28.0703 3.27344C28.2161 3.41406 28.3307 3.58333 28.4141 3.78125C28.4974 3.97396 28.5391 4.17969 28.5391 4.39844V12.3984ZM21.3359 4.39844V12.3984H26.9375V4.39844H21.3359ZM33.9844 2.79688V14H32.3828V4.39844H30.4609V2.79688H33.9844ZM39.5938 2.79688V14H37.9922V4.39844H36.0703V2.79688H39.5938ZM51.4453 12.3984C51.4453 12.6172 51.4036 12.8255 51.3203 13.0234C51.237 13.2161 51.1224 13.3854 50.9766 13.5312C50.8307 13.6771 50.6589 13.7917 50.4609 13.875C50.2682 13.9583 50.0625 14 49.8438 14H44.2422C44.0234 14 43.8151 13.9583 43.6172 13.875C43.4245 13.7917 43.2552 13.6771 43.1094 13.5312C42.9635 13.3854 42.849 13.2161 42.7656 13.0234C42.6823 12.8255 42.6406 12.6172 42.6406 12.3984V4.39844C42.6406 4.17969 42.6823 3.97396 42.7656 3.78125C42.849 3.58333 42.9635 3.41406 43.1094 3.27344C43.2552 3.1276 43.4245 3.01302 43.6172 2.92969C43.8151 2.84115 44.0234 2.79688 44.2422 2.79688H49.8438C50.0625 2.79688 50.2682 2.84115 50.4609 2.92969C50.6589 3.01302 50.8307 3.1276 50.9766 3.27344C51.1224 3.41406 51.237 3.58333 51.3203 3.78125C51.4036 3.97396 51.4453 4.17969 51.4453 4.39844V12.3984ZM44.2422 4.39844V12.3984H49.8438V4.39844H44.2422ZM63.1328 12.3984C63.1328 12.6172 63.0911 12.8255 63.0078 13.0234C62.9245 13.2161 62.8099 13.3854 62.6641 13.5312C62.5182 13.6771 62.3464 13.7917 62.1484 13.875C61.9557 13.9583 61.75 14 61.5312 14H55.9297C55.7109 14 55.5026 13.9583 55.3047 13.875C55.112 13.7917 54.9427 13.6771 54.7969 13.5312C54.651 13.3854 54.5365 13.2161 54.4531 13.0234C54.3698 12.8255 54.3281 12.6172 54.3281 12.3984V4.39844C54.3281 4.17969 54.3698 3.97396 54.4531 3.78125C54.5365 3.58333 54.651 3.41406 54.7969 3.27344C54.9427 3.1276 55.112 3.01302 55.3047 2.92969C55.5026 2.84115 55.7109 2.79688 55.9297 2.79688H61.5312C61.75 2.79688 61.9557 2.84115 62.1484 2.92969C62.3464 3.01302 62.5182 3.1276 62.6641 3.27344C62.8099 3.41406 62.9245 3.58333 63.0078 3.78125C63.0911 3.97396 63.1328 4.17969 63.1328 4.39844V12.3984ZM55.9297 4.39844V12.3984H61.5312V4.39844H55.9297ZM68.5781 2.79688V14H66.9766V4.39844H65.0547V2.79688H68.5781ZM11.2422 28.3984C11.2422 28.6172 11.2005 28.8255 11.1172 29.0234C11.0339 29.2161 10.9193 29.3854 10.7734 29.5312C10.6276 29.6771 10.4557 29.7917 10.2578 29.875C10.0651 29.9583 9.85938 30 9.64062 30H4.03906C3.82031 30 3.61198 29.9583 3.41406 29.875C3.22135 29.7917 3.05208 29.6771 2.90625 29.5312C2.76042 29.3854 2.64583 29.2161 2.5625 29.0234C2.47917 28.8255 2.4375 28.6172 2.4375 28.3984V20.3984C2.4375 20.1797 2.47917 19.974 2.5625 19.7812C2.64583 19.5833 2.76042 19.4141 2.90625 19.2734C3.05208 19.1276 3.22135 19.013 3.41406 18.9297C3.61198 18.8411 3.82031 18.7969 4.03906 18.7969H9.64062C9.85938 18.7969 10.0651 18.8411 10.2578 18.9297C10.4557 19.013 10.6276 19.1276 10.7734 19.2734C10.9193 19.4141 11.0339 19.5833 11.1172 19.7812C11.2005 19.974 11.2422 20.1797 11.2422 20.3984V28.3984ZM4.03906 20.3984V28.3984H9.64062V20.3984H4.03906ZM16.6875 18.7969V30H15.0859V20.3984H13.1641V18.7969H16.6875ZM28.5391 28.3984C28.5391 28.6172 28.4974 28.8255 28.4141 29.0234C28.3307 29.2161 28.2161 29.3854 28.0703 29.5312C27.9245 29.6771 27.7526 29.7917 27.5547 29.875C27.362 29.9583 27.1562 30 26.9375 30H21.3359C21.1172 30 20.9089 29.9583 20.7109 29.875C20.5182 29.7917 20.349 29.6771 20.2031 29.5312C20.0573 29.3854 19.9427 29.2161 19.8594 29.0234C19.776 28.8255 19.7344 28.6172 19.7344 28.3984V20.3984C19.7344 20.1797 19.776 19.974 19.8594 19.7812C19.9427 19.5833 20.0573 19.4141 20.2031 19.2734C20.349 19.1276 20.5182 19.013 20.7109 18.9297C20.9089 18.8411 21.1172 18.7969 21.3359 18.7969H26.9375C27.1562 18.7969 27.362 18.8411 27.5547 18.9297C27.7526 19.013 27.9245 19.1276 28.0703 19.2734C28.2161 19.4141 28.3307 19.5833 28.4141 19.7812C28.4974 19.974 28.5391 20.1797 28.5391 20.3984V28.3984ZM21.3359 20.3984V28.3984H26.9375V20.3984H21.3359ZM33.9844 18.7969V30H32.3828V20.3984H30.4609V18.7969H33.9844ZM39.5938 18.7969V30H37.9922V20.3984H36.0703V18.7969H39.5938ZM51.4453 28.3984C51.4453 28.6172 51.4036 28.8255 51.3203 29.0234C51.237 29.2161 51.1224 29.3854 50.9766 29.5312C50.8307 29.6771 50.6589 29.7917 50.4609 29.875C50.2682 29.9583 50.0625 30 49.8438 30H44.2422C44.0234 30 43.8151 29.9583 43.6172 29.875C43.4245 29.7917 43.2552 29.6771 43.1094 29.5312C42.9635 29.3854 42.849 29.2161 42.7656 29.0234C42.6823 28.8255 42.6406 28.6172 42.6406 28.3984V20.3984C42.6406 20.1797 42.6823 19.974 42.7656 19.7812C42.849 19.5833 42.9635 19.4141 43.1094 19.2734C43.2552 19.1276 43.4245 19.013 43.6172 18.9297C43.8151 18.8411 44.0234 18.7969 44.2422 18.7969H49.8438C50.0625 18.7969 50.2682 18.8411 50.4609 18.9297C50.6589 19.013 50.8307 19.1276 50.9766 19.2734C51.1224 19.4141 51.237 19.5833 51.3203 19.7812C51.4036 19.974 51.4453 20.1797 51.4453 20.3984V28.3984ZM44.2422 20.3984V28.3984H49.8438V20.3984H44.2422ZM63.1328 28.3984C63.1328 28.6172 63.0911 28.8255 63.0078 29.0234C62.9245 29.2161 62.8099 29.3854 62.6641 29.5312C62.5182 29.6771 62.3464 29.7917 62.1484 29.875C61.9557 29.9583 61.75 30 61.5312 30H55.9297C55.7109 30 55.5026 29.9583 55.3047 29.875C55.112 29.7917 54.9427 29.6771 54.7969 29.5312C54.651 29.3854 54.5365 29.2161 54.4531 29.0234C54.3698 28.8255 54.3281 28.6172 54.3281 28.3984V20.3984C54.3281 20.1797 54.3698 19.974 54.4531 19.7812C54.5365 19.5833 54.651 19.4141 54.7969 19.2734C54.9427 19.1276 55.112 19.013 55.3047 18.9297C55.5026 18.8411 55.7109 18.7969 55.9297 18.7969H61.5312C61.75 18.7969 61.9557 18.8411 62.1484 18.9297C62.3464 19.013 62.5182 19.1276 62.6641 19.2734C62.8099 19.4141 62.9245 19.5833 63.0078 19.7812C63.0911 19.974 63.1328 20.1797 63.1328 20.3984V28.3984ZM55.9297 20.3984V28.3984H61.5312V20.3984H55.9297ZM68.5781 18.7969V30H66.9766V20.3984H65.0547V18.7969H68.5781ZM11.2422 44.3984C11.2422 44.6172 11.2005 44.8255 11.1172 45.0234C11.0339 45.2161 10.9193 45.3854 10.7734 45.5312C10.6276 45.6771 10.4557 45.7917 10.2578 45.875C10.0651 45.9583 9.85938 46 9.64062 46H4.03906C3.82031 46 3.61198 45.9583 3.41406 45.875C3.22135 45.7917 3.05208 45.6771 2.90625 45.5312C2.76042 45.3854 2.64583 45.2161 2.5625 45.0234C2.47917 44.8255 2.4375 44.6172 2.4375 44.3984V36.3984C2.4375 36.1797 2.47917 35.974 2.5625 35.7812C2.64583 35.5833 2.76042 35.4141 2.90625 35.2734C3.05208 35.1276 3.22135 35.013 3.41406 34.9297C3.61198 34.8411 3.82031 34.7969 4.03906 34.7969H9.64062C9.85938 34.7969 10.0651 34.8411 10.2578 34.9297C10.4557 35.013 10.6276 35.1276 10.7734 35.2734C10.9193 35.4141 11.0339 35.5833 11.1172 35.7812C11.2005 35.974 11.2422 36.1797 11.2422 36.3984V44.3984ZM4.03906 36.3984V44.3984H9.64062V36.3984H4.03906ZM16.6875 34.7969V46H15.0859V36.3984H13.1641V34.7969H16.6875ZM28.5391 44.3984C28.5391 44.6172 28.4974 44.8255 28.4141 45.0234C28.3307 45.2161 28.2161 45.3854 28.0703 45.5312C27.9245 45.6771 27.7526 45.7917 27.5547 45.875C27.362 45.9583 27.1562 46 26.9375 46H21.3359C21.1172 46 20.9089 45.9583 20.7109 45.875C20.5182 45.7917 20.349 45.6771 20.2031 45.5312C20.0573 45.3854 19.9427 45.2161 19.8594 45.0234C19.776 44.8255 19.7344 44.6172 19.7344 44.3984V36.3984C19.7344 36.1797 19.776 35.974 19.8594 35.7812C19.9427 35.5833 20.0573 35.4141 20.2031 35.2734C20.349 35.1276 20.5182 35.013 20.7109 34.9297C20.9089 34.8411 21.1172 34.7969 21.3359 34.7969H26.9375C27.1562 34.7969 27.362 34.8411 27.5547 34.9297C27.7526 35.013 27.9245 35.1276 28.0703 35.2734C28.2161 35.4141 28.3307 35.5833 28.4141 35.7812C28.4974 35.974 28.5391 36.1797 28.5391 36.3984V44.3984ZM21.3359 36.3984V44.3984H26.9375V36.3984H21.3359ZM33.9844 34.7969V46H32.3828V36.3984H30.4609V34.7969H33.9844ZM39.5938 34.7969V46H37.9922V36.3984H36.0703V34.7969H39.5938ZM51.4453 44.3984C51.4453 44.6172 51.4036 44.8255 51.3203 45.0234C51.237 45.2161 51.1224 45.3854 50.9766 45.5312C50.8307 45.6771 50.6589 45.7917 50.4609 45.875C50.2682 45.9583 50.0625 46 49.8438 46H44.2422C44.0234 46 43.8151 45.9583 43.6172 45.875C43.4245 45.7917 43.2552 45.6771 43.1094 45.5312C42.9635 45.3854 42.849 45.2161 42.7656 45.0234C42.6823 44.8255 42.6406 44.6172 42.6406 44.3984V36.3984C42.6406 36.1797 42.6823 35.974 42.7656 35.7812C42.849 35.5833 42.9635 35.4141 43.1094 35.2734C43.2552 35.1276 43.4245 35.013 43.6172 34.9297C43.8151 34.8411 44.0234 34.7969 44.2422 34.7969H49.8438C50.0625 34.7969 50.2682 34.8411 50.4609 34.9297C50.6589 35.013 50.8307 35.1276 50.9766 35.2734C51.1224 35.4141 51.237 35.5833 51.3203 35.7812C51.4036 35.974 51.4453 36.1797 51.4453 36.3984V44.3984ZM44.2422 36.3984V44.3984H49.8438V36.3984H44.2422ZM63.1328 44.3984C63.1328 44.6172 63.0911 44.8255 63.0078 45.0234C62.9245 45.2161 62.8099 45.3854 62.6641 45.5312C62.5182 45.6771 62.3464 45.7917 62.1484 45.875C61.9557 45.9583 61.75 46 61.5312 46H55.9297C55.7109 46 55.5026 45.9583 55.3047 45.875C55.112 45.7917 54.9427 45.6771 54.7969 45.5312C54.651 45.3854 54.5365 45.2161 54.4531 45.0234C54.3698 44.8255 54.3281 44.6172 54.3281 44.3984V36.3984C54.3281 36.1797 54.3698 35.974 54.4531 35.7812C54.5365 35.5833 54.651 35.4141 54.7969 35.2734C54.9427 35.1276 55.112 35.013 55.3047 34.9297C55.5026 34.8411 55.7109 34.7969 55.9297 34.7969H61.5312C61.75 34.7969 61.9557 34.8411 62.1484 34.9297C62.3464 35.013 62.5182 35.1276 62.6641 35.2734C62.8099 35.4141 62.9245 35.5833 63.0078 35.7812C63.0911 35.974 63.1328 36.1797 63.1328 36.3984V44.3984ZM55.9297 36.3984V44.3984H61.5312V36.3984H55.9297ZM68.5781 34.7969V46H66.9766V36.3984H65.0547V34.7969H68.5781ZM11.2422 60.3984C11.2422 60.6172 11.2005 60.8255 11.1172 61.0234C11.0339 61.2161 10.9193 61.3854 10.7734 61.5312C10.6276 61.6771 10.4557 61.7917 10.2578 61.875C10.0651 61.9583 9.85938 62 9.64062 62H4.03906C3.82031 62 3.61198 61.9583 3.41406 61.875C3.22135 61.7917 3.05208 61.6771 2.90625 61.5312C2.76042 61.3854 2.64583 61.2161 2.5625 61.0234C2.47917 60.8255 2.4375 60.6172 2.4375 60.3984V52.3984C2.4375 52.1797 2.47917 51.974 2.5625 51.7812C2.64583 51.5833 2.76042 51.4141 2.90625 51.2734C3.05208 51.1276 3.22135 51.013 3.41406 50.9297C3.61198 50.8411 3.82031 50.7969 4.03906 50.7969H9.64062C9.85938 50.7969 10.0651 50.8411 10.2578 50.9297C10.4557 51.013 10.6276 51.1276 10.7734 51.2734C10.9193 51.4141 11.0339 51.5833 11.1172 51.7812C11.2005 51.974 11.2422 52.1797 11.2422 52.3984V60.3984ZM4.03906 52.3984V60.3984H9.64062V52.3984H4.03906ZM16.6875 50.7969V62H15.0859V52.3984H13.1641V50.7969H16.6875ZM28.5391 60.3984C28.5391 60.6172 28.4974 60.8255 28.4141 61.0234C28.3307 61.2161 28.2161 61.3854 28.0703 61.5312C27.9245 61.6771 27.7526 61.7917 27.5547 61.875C27.362 61.9583 27.1562 62 26.9375 62H21.3359C21.1172 62 20.9089 61.9583 20.7109 61.875C20.5182 61.7917 20.349 61.6771 20.2031 61.5312C20.0573 61.3854 19.9427 61.2161 19.8594 61.0234C19.776 60.8255 19.7344 60.6172 19.7344 60.3984V52.3984C19.7344 52.1797 19.776 51.974 19.8594 51.7812C19.9427 51.5833 20.0573 51.4141 20.2031 51.2734C20.349 51.1276 20.5182 51.013 20.7109 50.9297C20.9089 50.8411 21.1172 50.7969 21.3359 50.7969H26.9375C27.1562 50.7969 27.362 50.8411 27.5547 50.9297C27.7526 51.013 27.9245 51.1276 28.0703 51.2734C28.2161 51.4141 28.3307 51.5833 28.4141 51.7812C28.4974 51.974 28.5391 52.1797 28.5391 52.3984V60.3984ZM21.3359 52.3984V60.3984H26.9375V52.3984H21.3359ZM33.9844 50.7969V62H32.3828V52.3984H30.4609V50.7969H33.9844ZM45.8359 60.3984C45.8359 60.6172 45.7943 60.8255 45.7109 61.0234C45.6276 61.2161 45.513 61.3854 45.3672 61.5312C45.2214 61.6771 45.0495 61.7917 44.8516 61.875C44.6589 61.9583 44.4531 62 44.2344 62H38.6328C38.4141 62 38.2057 61.9583 38.0078 61.875C37.8151 61.7917 37.6458 61.6771 37.5 61.5312C37.3542 61.3854 37.2396 61.2161 37.1562 61.0234C37.0729 60.8255 37.0312 60.6172 37.0312 60.3984V52.3984C37.0312 52.1797 37.0729 51.974 37.1562 51.7812C37.2396 51.5833 37.3542 51.4141 37.5 51.2734C37.6458 51.1276 37.8151 51.013 38.0078 50.9297C38.2057 50.8411 38.4141 50.7969 38.6328 50.7969H44.2344C44.4531 50.7969 44.6589 50.8411 44.8516 50.9297C45.0495 51.013 45.2214 51.1276 45.3672 51.2734C45.513 51.4141 45.6276 51.5833 45.7109 51.7812C45.7943 51.974 45.8359 52.1797 45.8359 52.3984V60.3984ZM38.6328 52.3984V60.3984H44.2344V52.3984H38.6328ZM51.2812 50.7969V62H49.6797V52.3984H47.7578V50.7969H51.2812ZM63.1328 60.3984C63.1328 60.6172 63.0911 60.8255 63.0078 61.0234C62.9245 61.2161 62.8099 61.3854 62.6641 61.5312C62.5182 61.6771 62.3464 61.7917 62.1484 61.875C61.9557 61.9583 61.75 62 61.5312 62H55.9297C55.7109 62 55.5026 61.9583 55.3047 61.875C55.112 61.7917 54.9427 61.6771 54.7969 61.5312C54.651 61.3854 54.5365 61.2161 54.4531 61.0234C54.3698 60.8255 54.3281 60.6172 54.3281 60.3984V52.3984C54.3281 52.1797 54.3698 51.974 54.4531 51.7812C54.5365 51.5833 54.651 51.4141 54.7969 51.2734C54.9427 51.1276 55.112 51.013 55.3047 50.9297C55.5026 50.8411 55.7109 50.7969 55.9297 50.7969H61.5312C61.75 50.7969 61.9557 50.8411 62.1484 50.9297C62.3464 51.013 62.5182 51.1276 62.6641 51.2734C62.8099 51.4141 62.9245 51.5833 63.0078 51.7812C63.0911 51.974 63.1328 52.1797 63.1328 52.3984V60.3984ZM55.9297 52.3984V60.3984H61.5312V52.3984H55.9297ZM68.5781 50.7969V62H66.9766V52.3984H65.0547V50.7969H68.5781ZM5 66.7969V78H3.39844V68.3984H1.47656V66.7969H5ZM16.8516 76.3984C16.8516 76.6172 16.8099 76.8255 16.7266 77.0234C16.6432 77.2161 16.5286 77.3854 16.3828 77.5312C16.237 77.6771 16.0651 77.7917 15.8672 77.875C15.6745 77.9583 15.4688 78 15.25 78H9.64844C9.42969 78 9.22135 77.9583 9.02344 77.875C8.83073 77.7917 8.66146 77.6771 8.51562 77.5312C8.36979 77.3854 8.25521 77.2161 8.17188 77.0234C8.08854 76.8255 8.04688 76.6172 8.04688 76.3984V68.3984C8.04688 68.1797 8.08854 67.974 8.17188 67.7812C8.25521 67.5833 8.36979 67.4141 8.51562 67.2734C8.66146 67.1276 8.83073 67.013 9.02344 66.9297C9.22135 66.8411 9.42969 66.7969 9.64844 66.7969H15.25C15.4688 66.7969 15.6745 66.8411 15.8672 66.9297C16.0651 67.013 16.237 67.1276 16.3828 67.2734C16.5286 67.4141 16.6432 67.5833 16.7266 67.7812C16.8099 67.974 16.8516 68.1797 16.8516 68.3984V76.3984ZM9.64844 68.3984V76.3984H15.25V68.3984H9.64844ZM28.5391 76.3984C28.5391 76.6172 28.4974 76.8255 28.4141 77.0234C28.3307 77.2161 28.2161 77.3854 28.0703 77.5312C27.9245 77.6771 27.7526 77.7917 27.5547 77.875C27.362 77.9583 27.1562 78 26.9375 78H21.3359C21.1172 78 20.9089 77.9583 20.7109 77.875C20.5182 77.7917 20.349 77.6771 20.2031 77.5312C20.0573 77.3854 19.9427 77.2161 19.8594 77.0234C19.776 76.8255 19.7344 76.6172 19.7344 76.3984V68.3984C19.7344 68.1797 19.776 67.974 19.8594 67.7812C19.9427 67.5833 20.0573 67.4141 20.2031 67.2734C20.349 67.1276 20.5182 67.013 20.7109 66.9297C20.9089 66.8411 21.1172 66.7969 21.3359 66.7969H26.9375C27.1562 66.7969 27.362 66.8411 27.5547 66.9297C27.7526 67.013 27.9245 67.1276 28.0703 67.2734C28.2161 67.4141 28.3307 67.5833 28.4141 67.7812C28.4974 67.974 28.5391 68.1797 28.5391 68.3984V76.3984ZM21.3359 68.3984V76.3984H26.9375V68.3984H21.3359ZM33.9844 66.7969V78H32.3828V68.3984H30.4609V66.7969H33.9844ZM45.8359 76.3984C45.8359 76.6172 45.7943 76.8255 45.7109 77.0234C45.6276 77.2161 45.513 77.3854 45.3672 77.5312C45.2214 77.6771 45.0495 77.7917 44.8516 77.875C44.6589 77.9583 44.4531 78 44.2344 78H38.6328C38.4141 78 38.2057 77.9583 38.0078 77.875C37.8151 77.7917 37.6458 77.6771 37.5 77.5312C37.3542 77.3854 37.2396 77.2161 37.1562 77.0234C37.0729 76.8255 37.0312 76.6172 37.0312 76.3984V68.3984C37.0312 68.1797 37.0729 67.974 37.1562 67.7812C37.2396 67.5833 37.3542 67.4141 37.5 67.2734C37.6458 67.1276 37.8151 67.013 38.0078 66.9297C38.2057 66.8411 38.4141 66.7969 38.6328 66.7969H44.2344C44.4531 66.7969 44.6589 66.8411 44.8516 66.9297C45.0495 67.013 45.2214 67.1276 45.3672 67.2734C45.513 67.4141 45.6276 67.5833 45.7109 67.7812C45.7943 67.974 45.8359 68.1797 45.8359 68.3984V76.3984ZM38.6328 68.3984V76.3984H44.2344V68.3984H38.6328ZM51.2812 66.7969V78H49.6797V68.3984H47.7578V66.7969H51.2812ZM63.1328 76.3984C63.1328 76.6172 63.0911 76.8255 63.0078 77.0234C62.9245 77.2161 62.8099 77.3854 62.6641 77.5312C62.5182 77.6771 62.3464 77.7917 62.1484 77.875C61.9557 77.9583 61.75 78 61.5312 78H55.9297C55.7109 78 55.5026 77.9583 55.3047 77.875C55.112 77.7917 54.9427 77.6771 54.7969 77.5312C54.651 77.3854 54.5365 77.2161 54.4531 77.0234C54.3698 76.8255 54.3281 76.6172 54.3281 76.3984V68.3984C54.3281 68.1797 54.3698 67.974 54.4531 67.7812C54.5365 67.5833 54.651 67.4141 54.7969 67.2734C54.9427 67.1276 55.112 67.013 55.3047 66.9297C55.5026 66.8411 55.7109 66.7969 55.9297 66.7969H61.5312C61.75 66.7969 61.9557 66.8411 62.1484 66.9297C62.3464 67.013 62.5182 67.1276 62.6641 67.2734C62.8099 67.4141 62.9245 67.5833 63.0078 67.7812C63.0911 67.974 63.1328 68.1797 63.1328 68.3984V76.3984ZM55.9297 68.3984V76.3984H61.5312V68.3984H55.9297ZM68.5781 66.7969V78H66.9766V68.3984H65.0547V66.7969H68.5781Z" fill="#4777B1" fill-opacity="0.4"/>
</svg>
